HIERARCHY
ROOT Hips
{
	OFFSET 0.000000 0.000000 0.000000
	CHANNELS 6 Xposition Yposition Zposition Zrotation Yrotation Xrotation 
	JOINT LowerBack
	{
		OFFSET 0.000000 0.000000 0.000000
		CHANNELS 3 Zrotation Yrotation Xrotation
		JOINT Spine
		{
			OFFSET 0.028270 2.035590 -0.193380
			CHANNELS 3 Zrotation Yrotation Xrotation
			JOINT Spine1
			{
				OFFSET 0.056720 2.048850 -0.042750
				CHANNELS 3 Zrotation Yrotation Xrotation
				JOINT Neck
				{
					OFFSET 0.000000 0.000000 0.000000
					CHANNELS 3 Zrotation Yrotation Xrotation
					JOINT Neck1
					{
						OFFSET -0.054170 1.746240 0.172020
						CHANNELS 3 Zrotation Yrotation Xrotation
						JOINT Head
						{
							OFFSET 0.104070 1.761360 -0.123970
							CHANNELS 3 Zrotation Yrotation Xrotation
							End Site
							{
								OFFSET 0.000000 0.000000 0.000000
							}
						}
					}
				}
				JOINT LeftShoulder
				{
					OFFSET 0.000000 0.000000 0.000000
					CHANNELS 3 Zrotation Yrotation Xrotation
					JOINT LeftArm
					{
						OFFSET 3.362410 1.200890 -0.311210
						CHANNELS 3 Zrotation Yrotation Xrotation
						JOINT LeftForeArm
						{
							OFFSET 4.983000 -0.000000 -0.000000
							CHANNELS 3 Zrotation Yrotation Xrotation
							JOINT LeftHand
							{
								OFFSET 3.483560 -0.000000 -0.000000
								CHANNELS 3 Zrotation Yrotation Xrotation
								JOINT LeftFingerBase
								{
									OFFSET 0.000000 0.000000 0.000000
									CHANNELS 3 Zrotation Yrotation Xrotation
									JOINT LeftHandIndex1
									{
										OFFSET 0.715260 -0.000000 -0.000000
										CHANNELS 3 Zrotation Yrotation Xrotation
										End Site
										{
											OFFSET 0.000000 0.000000 0.000000
										}
									}
								}
								JOINT LThumb
								{
									OFFSET 0.000000 0.000000 0.000000
									CHANNELS 3 Zrotation Yrotation Xrotation
									End Site
									{
										OFFSET 0.000000 0.000000 0.000000
									}
								}
							}
						}
					}
				}
				JOINT RightShoulder
				{
					OFFSET 0.000000 0.000000 0.000000
					CHANNELS 3 Zrotation Yrotation Xrotation
					JOINT RightArm
					{
						OFFSET -3.136600 1.374050 -0.404650
						CHANNELS 3 Zrotation Yrotation Xrotation
						JOINT RightForeArm
						{
							OFFSET -5.241900 -0.000000 -0.000000
							CHANNELS 3 Zrotation Yrotation Xrotation
							JOINT RightHand
							{
								OFFSET -3.444170 -0.000000 -0.000000
								CHANNELS 3 Zrotation Yrotation Xrotation
								JOINT RightFingerBase
								{
									OFFSET 0.000000 0.000000 0.000000
									CHANNELS 3 Zrotation Yrotation Xrotation
									JOINT RightHandIndex1
									{
										OFFSET -0.622530 -0.000000 -0.000000
										CHANNELS 3 Zrotation Yrotation Xrotation
										End Site
										{
											OFFSET 0.000000 0.000000 0.000000
										}
									}
								}
								JOINT RThumb
								{
									OFFSET 0.000000 0.000000 0.000000
									CHANNELS 3 Zrotation Yrotation Xrotation
									End Site
									{
										OFFSET 0.000000 0.000000 0.000000
									}
								}
							}
						}
					}
				}
			}
		}
	}
}
}
MOTION
Frames: 12
Frame Time: 0.008333
22.582122 16.824711 1.847105 24.128539 -87.305367 5.615506 1.080361 -2.052969 -5.390695 -0.403217 -2.372585 -4.185697 -5.800581 -2.565190 -0.290083 10.510969 -8.748489 -11.929799 -2.685742 -0.139046 -1.405289 0.000000 0.000000 0.000000 2.026470 4.858517 3.242557 -81.416603 5.061283 2.077785 -1.725668 -36.204789 -0.029885 15.644658 -1.715704 -0.254663 -0.117857 0.127122 -0.000000 0.000000 0.000000 0.000000 0.000000 0.000000 0.000000 12.386393 -4.394034 2.817367 81.550309 5.680280 -0.871447 2.078765 29.836043 -0.016287 -10.402515 8.541593 -0.807735 0.133844 -0.209917 0.000000 0.000000 0.000000 0.000000 0.000000 0.000000 0.000000 
22.554553 16.749966 1.844921 27.549143 -87.154272 2.899401 0.929435 -2.079964 -5.503591 -0.433741 -2.392804 -4.222976 -5.787736 -2.590313 -0.334223 10.530527 -8.729677 -12.009609 -2.683280 -0.137082 -1.440800 0.000000 0.000000 0.000000 2.078769 4.699516 3.299755 -81.572301 4.880483 2.004230 -1.706898 -36.064516 -0.030825 15.797616 -1.867714 -0.278871 -0.117741 0.130461 -0.000000 0.000000 0.000000 0.000000 0.000000 0.000000 0.000000 12.399805 -4.368090 2.857965 81.709035 5.595658 -0.525128 2.023043 30.318404 -0.017600 -10.757283 8.782386 -0.858731 0.135035 -0.214364 0.000000 0.000000 0.000000 0.000000 0.000000 0.000000 0.000000 
22.526588 16.663905 1.842293 30.850736 -86.952497 0.322071 0.763648 -2.118694 -5.644414 -0.467632 -2.424598 -4.264396 -5.777917 -2.627180 -0.370999 10.565156 -8.735195 -12.096767 -2.685414 -0.135412 -1.478371 0.000000 0.000000 0.000000 2.106012 4.556937 3.354932 -81.692574 4.626496 1.913851 -1.690192 -35.903541 -0.031806 15.918360 -1.994499 -0.299381 -0.117343 0.133917 -0.000000 0.000000 0.000000 0.000000 0.000000 0.000000 0.000000 12.459666 -4.374230 2.893893 81.808170 5.539912 -0.125522 1.973686 30.844251 -0.018642 -10.996959 9.012739 -0.900824 0.135637 -0.218823 0.000000 0.000000 0.000000 0.000000 0.000000 0.000000 0.000000 
22.497829 16.565667 1.839469 33.916039 -86.703955 -1.989736 0.587003 -2.167252 -5.826918 -0.504181 -2.466912 -4.312806 -5.771675 -2.674845 -0.399946 10.615390 -8.766084 -12.192985 -2.692826 -0.134100 -1.518310 0.000000 0.000000 0.000000 2.102636 4.435518 3.407148 -81.776117 4.306477 1.810988 -1.674519 -35.741016 -0.032835 16.016086 -2.098669 -0.316491 -0.116666 0.137479 -0.000000 0.000000 0.000000 0.000000 0.000000 0.000000 0.000000 12.568998 -4.412248 2.925386 81.846253 5.509168 0.307670 1.931463 31.417045 -0.019371 -11.107333 9.224952 -0.931315 0.135566 -0.223284 0.000000 0.000000 0.000000 0.000000 0.000000 0.000000 0.000000 
22.468483 16.454763 1.836999 36.556793 -86.416631 -3.842748 0.412929 -2.222690 -6.059605 -0.540733 -2.518276 -4.370338 -5.769940 -2.731906 -0.421990 10.679246 -8.818245 -12.298164 -2.706677 -0.133276 -1.560471 0.000000 0.000000 0.000000 2.058150 4.337116 3.455877 -81.820394 3.929507 1.699898 -1.658162 -35.596560 -0.033939 16.107006 -2.184042 -0.330902 -0.115696 0.141129 -0.000000 0.000000 0.000000 0.000000 0.000000 0.000000 0.000000 12.728339 -4.476693 2.953253 81.820850 5.500779 0.749655 1.896793 32.031858 -0.019778 -11.086727 9.411642 -0.948403 0.134806 -0.227723 0.000000 0.000000 0.000000 0.000000 0.000000 0.000000 0.000000 
22.438032 16.330517 1.834770 38.732137 -86.089147 -5.207659 0.240853 -2.285447 -6.338034 -0.577043 -2.578912 -4.434344 -5.772086 -2.798463 -0.430797 10.759204 -8.912990 -12.419383 -2.724932 -0.132662 -1.606820 0.000000 0.000000 0.000000 1.982852 4.275657 3.498012 -81.830551 3.481897 1.603516 -1.641149 -35.462027 -0.035137 16.212245 -2.263213 -0.345013 -0.114606 0.144880 -0.000000 0.000000 0.000000 0.000000 0.000000 0.000000 0.000000 12.936731 -4.591994 2.976980 81.736926 5.541536 1.208867 1.870560 32.649924 -0.019868 -10.956551 9.570484 -0.953190 0.133547 -0.231971 0.000000 0.000000 0.000000 0.000000 0.000000 0.000000 0.000000 
22.407185 16.193870 1.834481 40.289227 -85.753220 -5.915020 0.111300 -2.347003 -6.676617 -0.605738 -2.644711 -4.515096 -5.783093 -2.871004 -0.453229 10.836840 -8.958308 -12.527792 -2.757665 -0.133621 -1.649166 0.000000 0.000000 0.000000 1.829014 4.192323 3.541899 -81.790640 3.047040 1.476948 -1.616694 -35.422445 -0.036533 16.361572 -2.318280 -0.356727 -0.113030 0.148627 -0.000000 0.000000 0.000000 0.000000 0.000000 0.000000 0.000000 13.189997 -4.654559 3.002892 81.586290 5.551067 1.557722 1.847984 33.319934 -0.019765 -10.719218 9.689094 -0.944175 0.131468 -0.236307 0.000000 0.000000 0.000000 0.000000 0.000000 0.000000 0.000000 
22.375497 16.044760 1.835791 41.370125 -85.413334 -6.128306 0.014447 -2.405154 -7.064868 -0.628226 -2.712303 -4.606683 -5.800177 -2.945802 -0.474892 10.915969 -9.001026 -12.636982 -2.799127 -0.135450 -1.691266 0.000000 0.000000 0.000000 1.622401 4.115487 3.581173 -81.714683 2.581879 1.358574 -1.586891 -35.425550 -0.038122 16.576175 -2.369781 -0.369542 -0.111272 0.152340 -0.000000 0.000000 0.000000 0.000000 0.000000 0.000000 0.000000 13.480083 -4.716539 3.029709 81.380640 5.590370 1.841945 1.831229 33.956521 -0.019508 -10.427910 9.772024 -0.926561 0.129086 -0.240397 0.000000 0.000000 0.000000 0.000000 0.000000 0.000000 0.000000 
22.343249 15.884312 1.839018 42.009850 -85.078696 -5.901447 -0.041991 -2.458444 -7.486387 -0.642831 -2.780592 -4.706106 -5.823415 -3.021650 -0.498123 10.992252 -9.027659 -12.743394 -2.850150 -0.138260 -1.732375 0.000000 0.000000 0.000000 1.359560 4.044604 3.616729 -81.601214 2.080652 1.262013 -1.550834 -35.462372 -0.039967 16.879308 -2.416370 -0.383759 -0.109380 0.155967 -0.000000 0.000000 0.000000 0.000000 0.000000 0.000000 0.000000 13.802195 -4.764296 3.058314 81.120931 5.670735 2.057520 1.818280 34.523734 -0.019242 -10.138272 9.820978 -0.905549 0.126740 -0.244158 0.000000 0.000000 0.000000 0.000000 0.000000 0.000000 0.000000 
22.310985 15.714213 1.844317 42.266631 -84.759936 -5.315256 -0.054173 -2.503424 -7.923330 -0.649535 -2.846151 -4.813002 -5.854875 -3.095200 -0.536649 11.057019 -8.993923 -12.828837 -2.914740 -0.142658 -1.767430 0.000000 0.000000 0.000000 1.038595 3.938223 3.652391 -81.449815 1.575769 1.167789 -1.506633 -35.541988 -0.042110 17.284098 -2.447951 -0.398481 -0.107225 0.159399 -0.000000 0.000000 0.000000 0.000000 0.000000 0.000000 0.000000 14.151986 -4.749708 3.092476 80.815624 5.761990 2.142759 1.805192 35.008902 -0.019125 -9.885670 9.835316 -0.884538 0.124451 -0.247637 0.000000 0.000000 0.000000 0.000000 0.000000 0.000000 0.000000 
22.278552 15.536612 1.851647 42.216537 -84.466103 -4.470036 -0.024119 -2.537742 -8.354283 -0.648799 -2.905829 -4.922198 -5.893593 -3.163065 -0.588773 11.108708 -8.899318 -12.892340 -2.991849 -0.148528 -1.796395 0.000000 0.000000 0.000000 0.666061 3.803597 3.687931 -81.262480 1.040686 1.093837 -1.455390 -35.625332 -0.044559 17.793622 -2.459790 -0.412606 -0.104836 0.162569 -0.000000 0.000000 0.000000 0.000000 0.000000 0.000000 0.000000 14.524561 -4.673030 3.132276 80.468101 5.888887 2.115139 1.790573 35.364547 -0.019308 -9.727374 9.821552 -0.869334 0.122634 -0.250740 0.000000 0.000000 0.000000 0.000000 0.000000 0.000000 0.000000 
22.246309 15.354104 1.860750 41.941526 -84.203653 -3.468378 0.041895 -2.559243 -8.759427 -0.642478 -2.956218 -5.030719 -5.939841 -3.221787 -0.660114 11.144185 -8.722487 -12.923434 -3.082526 -0.156069 -1.816447 0.000000 0.000000 0.000000 0.250021 3.622290 3.725505 -81.040660 0.473443 1.036684 -1.397760 -35.689007 -0.047300 18.396383 -2.439632 -0.423939 -0.102116 0.165428 -0.000000 0.000000 0.000000 0.000000 0.000000 0.000000 0.000000 14.917181 -4.511668 3.179465 80.085298 6.046560 1.956565 1.771606 35.567875 -0.019938 -9.699332 9.782773 -0.863636 0.121426 -0.253488 0.000000 0.000000 0.000000 0.000000 0.000000 0.000000 0.000000 
